<?xml version="1.0" encoding="utf-8"?><!-- Uploaded to: SVG Repo, www.svgrepo.com, Generator: SVG Repo Mixer Tools -->
<svg width="800px" height="800px" viewBox="0 0 24 24" id="verified" xmlns="http://www.w3.org/2000/svg" class="icon multi-color"><title style="stroke-width: 2;">verified</title><path id="tertiary-fill" d="M20,10c-.68-.61-1.63-.89-2.31-1.48-.84-.76-1.43-2.23-2.44-2.64s-2.16.37-3.24.37-2.27-.76-3.25-.37S7.16,7.75,6.32,8.51C5.63,9.1,4.68,9.38,4,10a9.68,9.68,0,0,0,.12-1.13,4.23,4.23,0,0,1,.31-1.63A2.94,2.94,0,0,1,5.6,6.38,6.53,6.53,0,0,0,7,5.49,8.26,8.26,0,0,0,8.08,4.17,3.3,3.3,0,0,1,9.11,3a.75.75,0,0,1,.28,0,4.32,4.32,0,0,1,1,.21A6.35,6.35,0,0,0,12,3.48a6.27,6.27,0,0,0,1.56-.27A2.75,2.75,0,0,1,14.91,3a3.51,3.51,0,0,1,1,1.13A7.65,7.65,0,0,0,17,5.49a7.14,7.14,0,0,0,1.38.89,3.14,3.14,0,0,1,1.18.86,4.68,4.68,0,0,1,.3,1.63C19.91,9.21,19.94,9.6,20,10Z" style="fill: #b7b7b7; stroke-width: 2;"></path><path id="primary-stroke" d="M21.37,12c0,1-.86,1.79-1.14,2.67s-.1,2.08-.65,2.83-1.73.94-2.5,1.49-1.28,1.62-2.18,1.92S13,20.65,12,20.65s-2,.55-2.9.27S7.67,19.55,6.92,19,5,18.28,4.42,17.51s-.35-1.92-.65-2.83S2.63,13,2.63,12s.86-1.8,1.14-2.68.1-2.08.65-2.83S6.15,5.56,6.92,5,8.2,3.39,9.1,3.09s1.93.27,2.9.27,2-.55,2.9-.27S16.33,4.46,17.08,5s1.94.72,2.5,1.49.35,1.92.65,2.83S21.37,11,21.37,12Z" style="fill: none; stroke: rgb(0, 0, 0); stroke-linecap: round; stroke-linejoin: round; stroke-width: 2;"></path><polyline id="secondary-stroke" points="8 12 11 15 16 10" style="fill: none; stroke: rgb(44, 169, 188); stroke-linecap: round; stroke-linejoin: round; stroke-width: 2;"></polyline></svg>